<?xml version="1.0" encoding="UTF-8"?>
<svg width="20" height="20" viewBox="0 0 20 20" fill="none" xmlns="http://www.w3.org/2000/svg">
  <path d="M19.2 10.2273C19.2 9.51819 19.1364 8.83637 19.0182 8.18182H10V11.8727H15.1636C14.9273 13.0727 14.2364 14.0909 13.2182 14.7818V17.1727H16.3636C18.2 15.4727 19.2 13.0727 19.2 10.2273Z" fill="#4285F4"/>
  <path d="M10 19.9999C12.7 19.9999 14.9636 19.1090 16.3636 17.1726L13.2182 14.7817C12.3273 15.3635 11.2364 15.7272 10 15.7272C7.39091 15.7272 5.19091 13.9999 4.40455 11.6817H1.17273V14.1635C2.58182 17.5908 6.07273 19.9999 10 19.9999Z" fill="#34A853"/>
  <path d="M4.40455 11.6818C4 10.6818 3.77273 9.59091 3.77273 8.5C3.77273 7.40909 4 6.31818 4.40455 5.31818V2.83636H1.17273C0.427273 4.51818 0 6.45455 0 8.5C0 10.5455 0.427273 12.4818 1.17273 14.1636L4.40455 11.6818Z" fill="#FBBC05"/>
  <path d="M10 3.27273C11.4727 3.27273 12.7864 3.78182 13.8227 4.77273L16.6909 1.90455C14.9591 0.290909 12.6955 -0.599996 10 -0.599996C6.07273 -0.599996 2.58182 1.80909 1.17273 5.23636L4.40455 7.71818C5.19091 5.4 7.39091 3.27273 10 3.27273Z" fill="#EA4335"/>
</svg> 